HIERARCHY
ROOT Hips
{
	OFFSET 0.000000 0.000000 0.000000 
	CHANNELS 6 Xposition Yposition Zposition Zrotation Yrotation Xrotation
	JOINT LeftUpLeg
	{
		OFFSET 1.363060 -1.794630 0.839290 
		CHANNELS 3 Zrotation Yrotation Xrotation
		JOINT LeftLeg
		{
			OFFSET 2.448110 -6.726130 0.000000 
			CHANNELS 3 Zrotation Yrotation Xrotation
			JOINT LeftFoot
			{
				OFFSET 2.562200 -7.039590 0.000000 
				CHANNELS 3 Zrotation Yrotation Xrotation
				JOINT LeftToeBase
				{
					OFFSET 0.157640 -0.433110 2.322550 
					CHANNELS 3 Zrotation Yrotation Xrotation
					End Site
					{
						OFFSET 0.000000 0.000000 0.000000 
					}
				}
			}
		}
	}
	JOINT RightUpLeg
	{
		OFFSET -1.305520 -1.794630 0.839290 
		CHANNELS 3 Zrotation Yrotation Xrotation
		JOINT RightLeg
		{
			OFFSET -2.542530 -6.985550 0.000000 
			CHANNELS 3 Zrotation Yrotation Xrotation
			JOINT RightFoot
			{
				OFFSET -2.568260 -7.056230 0.000000 
				CHANNELS 3 Zrotation Yrotation Xrotation
				JOINT RightToeBase
				{
					OFFSET -0.164730 -0.452590 2.363150 
					CHANNELS 3 Zrotation Yrotation Xrotation
					End Site
					{
						OFFSET 0.000000 0.000000 0.000000 
					}
				}
			}
		}
	}
	JOINT Spine
	{
		OFFSET 0.028270 2.035590 -0.193380 
		CHANNELS 3 Zrotation Yrotation Xrotation
		JOINT Spine1
		{
			OFFSET 0.056720 2.048850 -0.042750 
			CHANNELS 3 Zrotation Yrotation Xrotation
			JOINT Neck1
			{
				OFFSET -0.054170 1.746240 0.172020 
				CHANNELS 3 Zrotation Yrotation Xrotation
				JOINT Head
				{
					OFFSET 0.104070 1.761360 -0.123970 
					CHANNELS 3 Zrotation Yrotation Xrotation
					End Site
					{
						OFFSET 0.000000 0.000000 0.000000 
					}
				}
			}
			JOINT LeftArm
			{
				OFFSET 3.362410 1.200890 -0.311210 
				CHANNELS 3 Zrotation Yrotation Xrotation
				JOINT LeftForeArm
				{
					OFFSET 4.983000 -0.000000 -0.000000 
					CHANNELS 3 Zrotation Yrotation Xrotation
					JOINT LeftHand
					{
						OFFSET 3.483560 -0.000000 -0.000000 
						CHANNELS 3 Zrotation Yrotation Xrotation
						JOINT LeftHandIndex1
						{
							OFFSET 0.715260 -0.000000 -0.000000 
							CHANNELS 3 Zrotation Yrotation Xrotation
							End Site
							{
								OFFSET 0.000000 0.000000 0.000000 
							}
						}
					}
				}
			}
			JOINT RightArm
			{
				OFFSET -3.136600 1.374050 -0.404650 
				CHANNELS 3 Zrotation Yrotation Xrotation
				JOINT RightForeArm
				{
					OFFSET -5.241900 -0.000000 -0.000000 
					CHANNELS 3 Zrotation Yrotation Xrotation
					JOINT RightHand
					{
						OFFSET -3.444170 -0.000000 -0.000000 
						CHANNELS 3 Zrotation Yrotation Xrotation
						JOINT RightHandIndex1
						{
							OFFSET -0.622530 -0.000000 -0.000000 
							CHANNELS 3 Zrotation Yrotation Xrotation
							End Site
							{
								OFFSET 0.000000 0.000000 0.000000 
							}
						}
					}
				}
			}
		}
	}
}
MOTION
Frames: 15
Frame Time: 0.041667
9.722695 17.882751 34.099701 -179.197776 -1.133108 -155.151488 -24.793944 -16.486549 -16.552046 -1.212943 4.000397 9.068980 0.818441 -1.434981 -17.689777 5.383100 -13.802700 -42.452700 31.986631 16.326146 -16.478299 1.063121 -3.974686 9.117202 -1.773582 3.794239 -25.899122 -0.290900 3.468300 -9.585300 1.493240 -0.175870 -6.063625 -1.115100 -0.736244 10.250836 12.029217 -4.005031 -4.964135 2.687600 -2.870800 -4.434600 -106.817535 -5.730981 13.760326 9.410587 -9.072015 -0.911673 -1.585681 1.403482 14.949152 -7.125000 0.000000 0.000000 99.802706 -0.432589 5.273633 -9.675198 18.104300 -2.087191 1.155743 4.017882 7.037471 7.125000 0.000000 0.000000 
9.732312 17.877833 34.056752 -178.516514 -2.063243 -156.276357 -23.813843 -16.337153 -15.315231 -1.193043 3.842939 9.010178 0.793642 -1.641799 -17.520257 5.236400 -13.645200 -41.834300 33.402227 17.454614 -14.114452 1.189095 -3.591144 8.505655 -1.917362 1.289801 -26.830272 -0.368100 3.897300 -10.788000 1.641756 -0.522261 -5.919871 -1.263416 -0.844326 10.432261 12.083383 -3.943030 -4.849074 2.724800 -2.826900 -4.406100 -106.688837 -5.917482 10.537347 8.899226 -8.350776 -0.797283 -1.414924 1.759620 17.797592 -7.125000 0.000000 0.000000 99.787315 -0.634440 4.281847 -9.360562 17.652966 -1.983498 1.282694 3.978205 7.377323 7.125000 0.000000 0.000000 
9.725208 17.871058 34.041234 -178.428254 -1.820322 -156.073280 -23.742930 -16.436688 -15.300259 -1.219273 3.782688 8.839764 0.852329 -1.257458 -17.660899 5.268500 -13.679900 -41.970000 33.349775 17.926888 -14.339398 1.192313 -3.692966 8.664296 -1.922753 1.234825 -26.958780 -0.343800 3.767400 -10.423200 1.620175 -0.402389 -5.907119 -1.332343 -0.796424 10.654979 12.097635 -3.936891 -4.830875 2.739300 -2.821500 -4.405000 -106.584373 -5.926568 7.199799 8.574382 -7.975072 -0.734925 -1.272171 2.057958 21.014797 -7.125000 0.000000 0.000000 99.770172 -0.719773 3.081816 -9.024130 17.151188 -1.871327 1.436200 3.924650 8.063194 7.125000 0.000000 0.000000 
9.722258 17.868435 34.090193 -179.081365 -1.083043 -154.298345 -24.361726 -16.630950 -17.531516 -1.223169 4.137125 9.212551 0.826727 -1.345573 -17.802294 5.376700 -13.795900 -42.425800 31.695201 18.216332 -17.396545 1.132806 -4.300575 9.512359 -1.809546 2.394236 -26.619296 -0.341100 3.753200 -10.383400 1.483851 -0.175141 -6.131517 -1.164070 -0.778948 10.540214 12.177434 -4.014818 -4.840217 2.752200 -2.867100 -4.341900 -106.435566 -5.785836 4.494200 8.405901 -7.856698 -0.712980 -1.132636 2.301640 23.431562 -7.125000 0.000000 0.000000 99.791929 -0.730200 1.548348 -8.672870 16.580039 -1.748061 1.597526 3.841787 8.984099 7.125000 0.000000 0.000000 
9.717449 17.866359 34.064839 -179.196455 -1.280432 -154.434095 -24.548771 -16.449705 -17.334843 -1.205979 4.107803 9.198857 0.779256 -1.721516 -17.750814 5.406300 -13.827200 -42.549600 31.614167 18.289364 -16.962368 1.143662 -4.214134 9.389984 -1.845903 2.114918 -26.815723 -0.346600 3.783000 -10.467000 1.468991 -0.253626 -6.094915 -1.177599 -0.813115 10.714463 12.089377 -3.890264 -4.750520 2.729400 -2.790200 -4.334800 -106.201769 -5.267753 4.925751 8.418250 -7.892929 -0.719176 -1.123771 2.352823 22.501676 -7.125000 0.000000 0.000000 99.788851 -0.787428 0.222004 -8.303908 16.009239 -1.626150 1.727833 3.765828 9.494585 7.125000 0.000000 0.000000 
9.704117 17.854447 34.047245 -178.984651 -0.974442 -154.060555 -24.371370 -16.577089 -17.508060 -1.234524 4.072938 9.053723 0.840944 -1.259475 -17.841723 5.278500 -13.690800 -42.012600 31.714380 18.810209 -17.527631 1.114520 -4.458028 9.791796 -1.208815 0.352113 -22.242840 -2.073700 9.018000 -25.851700 1.400005 -0.046572 -6.067634 -1.291507 -0.720915 11.042295 12.204052 -3.736964 -4.388266 2.806600 -2.672000 -4.124800 -105.741439 -4.172070 10.489925 8.833326 -8.395350 -0.802264 -1.366976 1.995823 16.641505 -7.125000 0.000000 0.000000 99.789508 -0.690444 -1.107958 -7.899501 15.404497 -1.506627 1.953314 3.647479 10.113597 7.125000 0.000000 0.000000 
9.700182 17.854884 34.034896 -178.940791 -0.866362 -154.117185 -24.391517 -16.644934 -17.209820 -1.250777 3.973644 8.844203 0.873441 -1.011301 -17.832697 5.201100 -13.606800 -41.684500 31.724623 19.072696 -17.403679 1.119182 -4.483515 9.863278 -1.225399 0.216957 -22.394386 -2.096900 9.065100 -25.999300 1.362952 0.068060 -6.043030 -1.327134 -0.674121 11.106882 12.129646 -3.665240 -4.107970 2.708100 -2.620100 -3.951500 -105.445142 -4.147075 8.348859 8.499577 -7.896073 -0.711881 -1.299583 1.890455 18.900825 -7.125000 0.000000 0.000000 99.862332 -0.639340 -2.720665 -7.561910 14.853075 -1.395469 2.049312 3.593660 10.966683 7.125000 0.000000 0.000000 
9.697778 17.854228 34.027683 -178.960439 -0.835241 -154.060796 -24.413824 -16.695385 -17.164174 -1.261008 3.930894 8.732344 0.890992 -0.867738 -17.833226 5.348200 -13.765500 -42.306200 31.669458 19.170548 -17.511744 1.120758 -4.537170 9.968820 -1.228910 0.103702 -22.458777 -2.111900 9.095500 -26.094400 1.445363 -0.088916 -6.078744 -1.106671 -0.751937 11.077731 12.036309 -3.469521 -4.090311 2.696900 -2.512000 -3.945400 -105.546904 -3.990078 5.324521 8.184309 -7.496392 -0.645575 -1.208265 2.045956 21.583739 -7.125000 0.000000 0.000000 99.533319 -0.733016 -3.748968 -7.294222 14.400356 -1.310544 2.123008 3.591551 11.700997 7.125000 0.000000 0.000000 
9.695155 17.852917 34.019596 -178.950771 -0.830538 -154.037611 -24.402824 -16.715481 -17.140666 -1.267072 3.916024 8.693968 0.906688 -0.789060 -17.903901 5.444700 -13.867800 -42.710300 31.691450 18.929564 -17.632597 1.110216 -4.569977 10.053314 -1.217087 0.222099 -22.347639 -2.145100 9.161900 -26.303100 1.473249 -0.122036 -6.080531 -1.006056 -0.767583 11.123740 11.971724 -3.391059 -4.137155 2.667700 -2.478400 -3.957500 -105.453984 -3.892755 3.319724 7.936547 -7.179355 -0.595664 -1.153579 2.120050 23.301665 -7.125000 0.000000 0.000000 99.434370 -0.813501 -4.852188 -7.117655 14.107798 -1.257241 2.191431 3.591563 12.382184 7.125000 0.000000 0.000000 
9.694281 17.849529 34.010088 -178.889147 -0.910781 -154.128870 -24.329399 -16.684040 -17.022038 -1.262637 3.900360 8.687504 0.895773 -0.877572 -17.881989 5.288700 -13.701700 -42.055600 31.836601 18.820051 -17.506519 1.115621 -4.544419 10.023430 -1.214132 0.051814 -22.306909 -2.279100 9.424800 -27.133400 1.476656 -0.127592 -6.060644 -1.013013 -0.764355 11.176585 11.920939 -3.354358 -4.115278 2.640100 -2.458700 -3.942800 -105.242036 -3.788200 1.710106 7.721998 -6.904405 -0.553288 -1.116392 2.142312 24.773936 -7.125000 0.000000 0.000000 99.463359 -0.934388 -5.949598 -6.977686 13.896291 -1.222698 2.280460 3.615516 12.950176 7.125000 0.000000 0.000000 
9.692970 17.848218 33.999488 -178.847198 -0.979254 -154.195425 -24.302341 -16.452956 -17.014830 -1.247202 3.910294 8.747526 0.857448 -1.169756 -17.829733 5.109500 -13.506000 -41.293500 31.943880 18.912752 -17.315591 1.131972 -4.494699 9.920882 -1.215488 -0.287932 -22.326209 -2.452600 9.751300 -28.175000 1.490924 -0.184527 -6.054693 -1.035895 -0.787219 11.213827 11.929558 -3.346178 -4.139539 2.656300 -2.455000 -3.970500 -105.135269 -3.706911 1.513395 7.465910 -6.469212 -0.500377 -1.178602 2.124856 24.885814 -7.125000 0.000000 0.000000 99.420323 -1.108525 -6.780211 -6.807100 13.643800 -1.184052 2.375620 3.671765 13.482140 7.125000 0.000000 0.000000 
9.690019 17.848983 33.988450 -178.837718 -0.959120 -154.223399 -24.331687 -16.213884 -17.056211 -1.233439 3.942604 8.853643 0.831223 -1.421204 -17.868136 5.007700 -13.392400 -40.855800 31.974855 18.878868 -17.214015 1.133881 -4.460823 9.858976 -1.209130 -0.338672 -22.254857 -2.505300 9.847500 -28.484400 1.507295 -0.215513 -6.047285 -1.012709 -0.800661 11.277882 11.954234 -3.366367 -4.243530 2.676400 -2.476000 -4.025900 -105.088895 -3.701440 1.304000 7.199479 -6.020593 -0.451569 -1.227154 2.140919 24.913786 -7.125000 0.000000 0.000000 99.300991 -1.249375 -7.271822 -6.652832 13.401820 -1.142923 2.430599 3.690026 13.764610 7.125000 0.000000 0.000000 
9.686194 17.848873 33.978834 -178.806111 -0.929380 -154.221085 -24.295235 -16.269693 -17.037534 -1.230402 3.966170 8.918213 0.832914 -1.467319 -17.949209 4.734200 -13.078100 -39.661600 32.009954 18.854904 -17.199254 1.135044 -4.460428 9.862145 -1.202351 -0.408205 -22.196575 -2.571200 9.966300 -28.867600 1.520375 -0.210135 -6.037347 -0.974046 -0.797941 11.338294 11.928149 -3.349268 -4.253135 2.654900 -2.471800 -4.005300 -105.020991 -3.667647 1.170559 6.986675 -5.663082 -0.415202 -1.257279 2.141944 24.949816 -7.125000 0.000000 0.000000 99.189675 -1.334213 -7.779134 -6.531642 13.202915 -1.106918 2.460043 3.683582 13.956511 7.125000 0.000000 0.000000 
9.681932 17.846251 33.971184 -178.793909 -0.905695 -154.144902 -24.273238 -16.417430 -17.032207 -1.235597 3.957549 8.880115 0.842249 -1.415021 -17.991512 4.544800 -12.852100 -38.817400 31.971902 19.021658 -17.269820 1.141884 -4.498870 9.925655 -1.204480 -0.605621 -22.261473 -2.702700 10.197400 -29.618500 1.518851 -0.189959 -6.033501 -0.955204 -0.794071 11.396733 11.919588 -3.341879 -4.180645 2.626400 -2.466900 -3.936600 -104.892303 -3.679107 1.083728 6.730688 -5.232245 -0.376225 -1.302615 2.163176 25.261660 -7.125000 0.000000 0.000000 99.155399 -1.330879 -9.113240 -6.366579 12.940147 -1.071250 2.596474 3.699860 14.826231 7.125000 0.000000 0.000000 
9.682260 17.844393 33.966922 -178.760403 -0.858531 -154.106051 -24.258508 -16.261745 -17.065789 -1.232156 3.942967 8.849837 0.824939 -1.496374 -17.904138 4.693300 -13.029900 -39.480300 32.015792 19.118497 -17.337661 1.137790 -4.551589 10.038904 -1.210302 -0.535103 -22.324232 -2.721700 10.230300 -29.725600 1.532427 -0.176934 -6.033769 -0.863144 -0.795951 11.411442 11.919696 -3.304664 -4.080605 2.615500 -2.439600 -3.866100 -104.824624 -3.831420 0.984764 6.500453 -4.837563 -0.340282 -1.328344 2.103460 24.984386 -7.125000 0.000000 0.000000 99.114605 -1.286692 -10.693557 -6.206046 12.667710 -1.034841 2.755838 3.686788 15.922534 7.125000 0.000000 0.000000 
